# xmcd
#
# Track frame offsets: 
#        150
#        47123
#        81623
#        102848
#        137198
#        162623
#        194423
#        225398
#        268523
#
# Disc length: 4034 seconds
#
# Revision: 0
# Processed by: cddbd v1.5.2PL0 Copyright (c) Steve Scherf et al.
# Submitted via: ExactAudioCopy v1.0b1
#
DISCID=7e0fc009
DTITLE=Alfred Walter, Slovak State Philharmonic - Suppé: Overtures v. 
DTITLE=1
DYEAR=1993
DGENRE=Classical
TTITLE0=Poet and Peasant. Overture 
TTITLE1=Fortune's Labyrinth. Overture
TTITLE2=Donna Juanita   Juanita March 
TTITLE3=Carnaval. Overture
TTITLE4=Boccaccio, operetta   Menuet and Tarantella 
TTITLE5=The Mistress   Overture
TTITLE6=Jolly Robbers. Overture
TTITLE7=The Goal of the Wanderer. Overture
TTITLE8=Pique Dame. Overture
EXTD=
EXTT0=
EXTT1=
EXTT2=
EXTT3=
EXTT4=
EXTT5=
EXTT6=
EXTT7=
EXTT8=
PLAYORDER=
